<svg width="187" height="64" viewBox="0 0 187 64" fill="none" xmlns="http://www.w3.org/2000/svg">
<path d="M48.7113 24.8557C48.7113 38.3069 37.8069 49.2113 24.3557 49.2113C10.9044 49.2113 0 38.3069 0 24.8557C0 11.4044 10.9044 0.5 24.3557 0.5C37.8069 0.5 48.7113 11.4044 48.7113 24.8557ZM6.31051 24.8557C6.31051 34.8217 14.3896 42.9008 24.3557 42.9008C34.3217 42.9008 42.4008 34.8217 42.4008 24.8557C42.4008 14.8896 34.3217 6.81051 24.3557 6.81051C14.3896 6.81051 6.31051 14.8896 6.31051 24.8557Z" fill="#FACC15"/>
<path d="M59.1031 39.1443C59.1031 52.5956 48.1987 63.5 34.7474 63.5C21.2962 63.5 10.3918 52.5956 10.3918 39.1443C10.3918 25.6931 21.2962 14.7887 34.7474 14.7887C48.1987 14.7887 59.1031 25.6931 59.1031 39.1443ZM16.7023 39.1443C16.7023 49.1104 24.7814 57.1895 34.7474 57.1895C44.7135 57.1895 52.7926 49.1104 52.7926 39.1443C52.7926 29.1783 44.7135 21.0992 34.7474 21.0992C24.7814 21.0992 16.7023 29.1783 16.7023 39.1443Z" fill="#FACC15"/>
<path d="M78.3707 42.5L79.8089 37.919H87.3409L88.7791 42.5H94.4467L87.0852 20.6818H80.0646L72.7031 42.5H78.3707ZM81.0661 33.9134L83.4844 26.179H83.6548L86.0838 33.9134H81.0661ZM103.398 48.9773C108.331 48.9773 111.697 46.7294 111.697 42.5639V26.1364H106.509V28.9382H106.36C105.731 27.4361 104.304 25.9233 101.726 25.9233C98.3059 25.9233 95.2058 28.5547 95.2058 34.2969C95.2058 39.858 98.1568 42.2763 101.747 42.2763C104.155 42.2763 105.763 41.1577 106.381 39.6449H106.562V42.5213C106.562 44.6094 105.284 45.3658 103.537 45.3658C101.864 45.3658 100.863 44.7266 100.586 43.7145L95.6532 43.9915C96.0368 46.8572 98.7321 48.9773 103.398 48.9773ZM103.558 38.4837C101.63 38.4837 100.554 36.9176 100.554 34.2969C100.554 31.6868 101.619 29.9929 103.558 29.9929C105.465 29.9929 106.573 31.6442 106.573 34.2969C106.573 36.9283 105.454 38.4837 103.558 38.4837ZM122.668 42.8089C126.961 42.8089 129.784 40.7315 130.381 37.5142L125.597 37.3757C125.192 38.4624 124.127 39.0483 122.763 39.0483C120.761 39.0483 119.525 37.7166 119.525 35.7138V35.5753H130.434V34.2756C130.434 28.8849 127.153 25.9233 122.508 25.9233C117.565 25.9233 114.39 29.3111 114.39 34.3821C114.39 39.6236 117.522 42.8089 122.668 42.8089ZM119.525 32.5497C119.599 30.9197 120.888 29.6839 122.614 29.6839C124.33 29.6839 125.565 30.8771 125.587 32.5497H119.525ZM138.304 33.1676C138.315 31.3033 139.401 30.1953 141.053 30.1953C142.704 30.1953 143.684 31.282 143.673 33.093V42.5H148.883V32.0703C148.894 28.3842 146.646 25.9233 143.205 25.9233C140.786 25.9233 138.954 27.1484 138.23 29.1406H138.048V26.1364H133.095V42.5H138.304V33.1676ZM159.747 42.8089C164.349 42.8089 167.204 40.1349 167.343 36.0866H162.474C162.282 37.8232 161.238 38.7713 159.811 38.7713C157.978 38.7713 156.785 37.2266 156.785 34.3182C156.785 31.4311 157.989 29.8864 159.811 29.8864C161.302 29.8864 162.272 30.8984 162.474 32.571H167.343C167.225 28.544 164.285 25.9233 159.736 25.9233C154.591 25.9233 151.48 29.3537 151.48 34.3714C151.48 39.3679 154.569 42.8089 159.747 42.8089ZM173.194 48.6364C176.944 48.6364 178.808 46.7401 179.714 44.0661L185.882 26.147L180.396 26.1364L177.338 37.8125H177.168L174.153 26.1364H168.698L174.515 43.0966L174.313 43.5866C173.812 44.8118 172.683 44.8331 171.149 44.3324L169.998 48.1143C170.786 48.4339 171.948 48.6364 173.194 48.6364Z" fill="#262626"/>
</svg>
